<mxfile host="65bd71144e">
    <diagram id="6DtWKZd62ZVtaGusaqdl" name="http_server">
        <mxGraphModel dx="2036" dy="632" grid="1" gridSize="10" guides="1" tooltips="1" connect="1" arrows="1" fold="1" page="1" pageScale="1" pageWidth="850" pageHeight="1100" math="0" shadow="0">
            <root>
                <mxCell id="eueUfSdCmA3u8m4OJzfh-0"/>
                <mxCell id="eueUfSdCmA3u8m4OJzfh-1" parent="eueUfSdCmA3u8m4OJzfh-0"/>
                <mxCell id="XxXt89t4WvsEOJDTN6ua-1" value="" style="edgeStyle=none;html=1;" edge="1" parent="eueUfSdCmA3u8m4OJzfh-1" source="eueUfSdCmA3u8m4OJzfh-2" target="XxXt89t4WvsEOJDTN6ua-0">
                    <mxGeometry relative="1" as="geometry"/>
                </mxCell>
                <mxCell id="eueUfSdCmA3u8m4OJzfh-2" value="http_server_start" style="strokeWidth=2;html=1;shape=mxgraph.flowchart.start_1;whiteSpace=wrap;" vertex="1" parent="eueUfSdCmA3u8m4OJzfh-1">
                    <mxGeometry x="375" y="70" width="100" height="60" as="geometry"/>
                </mxCell>
                <mxCell id="W7lCtU5l8TpqPTseyQ9o-1" value="" style="edgeStyle=none;html=1;" edge="1" parent="eueUfSdCmA3u8m4OJzfh-1" source="XxXt89t4WvsEOJDTN6ua-0" target="W7lCtU5l8TpqPTseyQ9o-0">
                    <mxGeometry relative="1" as="geometry"/>
                </mxCell>
                <mxCell id="XxXt89t4WvsEOJDTN6ua-0" value="init httpd_config_t" style="rounded=1;whiteSpace=wrap;html=1;absoluteArcSize=1;arcSize=14;strokeWidth=2;" vertex="1" parent="eueUfSdCmA3u8m4OJzfh-1">
                    <mxGeometry x="355" y="170" width="140" height="40" as="geometry"/>
                </mxCell>
                <mxCell id="W7lCtU5l8TpqPTseyQ9o-0" value="httpd_start(httpd_config_t)" style="rounded=1;whiteSpace=wrap;html=1;absoluteArcSize=1;arcSize=14;strokeWidth=2;" vertex="1" parent="eueUfSdCmA3u8m4OJzfh-1">
                    <mxGeometry x="340" y="250" width="170" height="40" as="geometry"/>
                </mxCell>
                <mxCell id="y8tMev-vbKiiozqD5wFg-0" value="" style="edgeStyle=none;html=1;" edge="1" parent="eueUfSdCmA3u8m4OJzfh-1" source="W7lCtU5l8TpqPTseyQ9o-2" target="W7lCtU5l8TpqPTseyQ9o-3">
                    <mxGeometry relative="1" as="geometry"/>
                </mxCell>
                <mxCell id="W7lCtU5l8TpqPTseyQ9o-2" value="http_server_register_uri" style="strokeWidth=2;html=1;shape=mxgraph.flowchart.start_1;whiteSpace=wrap;" vertex="1" parent="eueUfSdCmA3u8m4OJzfh-1">
                    <mxGeometry x="351.75" y="370" width="147" height="60" as="geometry"/>
                </mxCell>
                <mxCell id="Y_LaH2_DtXj0bOFf72sI-1" value="" style="edgeStyle=none;html=1;" edge="1" parent="eueUfSdCmA3u8m4OJzfh-1" source="W7lCtU5l8TpqPTseyQ9o-3" target="Y_LaH2_DtXj0bOFf72sI-0">
                    <mxGeometry relative="1" as="geometry"/>
                </mxCell>
                <mxCell id="W7lCtU5l8TpqPTseyQ9o-3" value="init httpd_uri_t" style="rounded=1;whiteSpace=wrap;html=1;absoluteArcSize=1;arcSize=14;strokeWidth=2;" vertex="1" parent="eueUfSdCmA3u8m4OJzfh-1">
                    <mxGeometry x="354.75" y="470" width="140" height="40" as="geometry"/>
                </mxCell>
                <mxCell id="Y_LaH2_DtXj0bOFf72sI-0" value="httpd_register_uri_handler(httpd_uri_t)" style="rounded=1;whiteSpace=wrap;html=1;absoluteArcSize=1;arcSize=14;strokeWidth=2;" vertex="1" parent="eueUfSdCmA3u8m4OJzfh-1">
                    <mxGeometry x="313" y="550" width="224.5" height="40" as="geometry"/>
                </mxCell>
                <mxCell id="eVOoLpJBTYLzl5DKdqxp-0" value="httpd_config_t" style="swimlane;fontStyle=0;childLayout=stackLayout;horizontal=1;startSize=26;fillColor=none;horizontalStack=0;resizeParent=1;resizeParentMax=0;resizeLast=0;collapsible=1;marginBottom=0;" vertex="1" parent="eueUfSdCmA3u8m4OJzfh-1">
                    <mxGeometry x="90" y="138" width="170" height="104" as="geometry"/>
                </mxCell>
                <mxCell id="eVOoLpJBTYLzl5DKdqxp-1" value="uint16_t server_port" style="text;strokeColor=none;fillColor=none;align=left;verticalAlign=top;spacingLeft=4;spacingRight=4;overflow=hidden;rotatable=0;points=[[0,0.5],[1,0.5]];portConstraint=eastwest;" vertex="1" parent="eVOoLpJBTYLzl5DKdqxp-0">
                    <mxGeometry y="26" width="170" height="26" as="geometry"/>
                </mxCell>
                <mxCell id="eVOoLpJBTYLzl5DKdqxp-2" value="uint16_t recv_wait_timeout" style="text;strokeColor=none;fillColor=none;align=left;verticalAlign=top;spacingLeft=4;spacingRight=4;overflow=hidden;rotatable=0;points=[[0,0.5],[1,0.5]];portConstraint=eastwest;" vertex="1" parent="eVOoLpJBTYLzl5DKdqxp-0">
                    <mxGeometry y="52" width="170" height="26" as="geometry"/>
                </mxCell>
                <mxCell id="eVOoLpJBTYLzl5DKdqxp-4" value="uint16_t send_wait_timeout" style="text;strokeColor=none;fillColor=none;align=left;verticalAlign=top;spacingLeft=4;spacingRight=4;overflow=hidden;rotatable=0;points=[[0,0.5],[1,0.5]];portConstraint=eastwest;" vertex="1" parent="eVOoLpJBTYLzl5DKdqxp-0">
                    <mxGeometry y="78" width="170" height="26" as="geometry"/>
                </mxCell>
                <mxCell id="eVOoLpJBTYLzl5DKdqxp-5" value="httpd_uri_t" style="swimlane;fontStyle=0;childLayout=stackLayout;horizontal=1;startSize=26;fillColor=none;horizontalStack=0;resizeParent=1;resizeParentMax=0;resizeLast=0;collapsible=1;marginBottom=0;" vertex="1" parent="eueUfSdCmA3u8m4OJzfh-1">
                    <mxGeometry x="70" y="438" width="200" height="104" as="geometry"/>
                </mxCell>
                <mxCell id="eVOoLpJBTYLzl5DKdqxp-6" value="const char *uri" style="text;strokeColor=none;fillColor=none;align=left;verticalAlign=top;spacingLeft=4;spacingRight=4;overflow=hidden;rotatable=0;points=[[0,0.5],[1,0.5]];portConstraint=eastwest;" vertex="1" parent="eVOoLpJBTYLzl5DKdqxp-5">
                    <mxGeometry y="26" width="200" height="26" as="geometry"/>
                </mxCell>
                <mxCell id="eVOoLpJBTYLzl5DKdqxp-7" value="httpd_method_t method" style="text;strokeColor=none;fillColor=none;align=left;verticalAlign=top;spacingLeft=4;spacingRight=4;overflow=hidden;rotatable=0;points=[[0,0.5],[1,0.5]];portConstraint=eastwest;" vertex="1" parent="eVOoLpJBTYLzl5DKdqxp-5">
                    <mxGeometry y="52" width="200" height="26" as="geometry"/>
                </mxCell>
                <mxCell id="eVOoLpJBTYLzl5DKdqxp-8" value="esp_err_t handler(httpd_req_t *r)" style="text;strokeColor=none;fillColor=none;align=left;verticalAlign=top;spacingLeft=4;spacingRight=4;overflow=hidden;rotatable=0;points=[[0,0.5],[1,0.5]];portConstraint=eastwest;" vertex="1" parent="eVOoLpJBTYLzl5DKdqxp-5">
                    <mxGeometry y="78" width="200" height="26" as="geometry"/>
                </mxCell>
                <mxCell id="eVOoLpJBTYLzl5DKdqxp-11" value="" style="edgeStyle=none;html=1;" edge="1" parent="eueUfSdCmA3u8m4OJzfh-1" source="eVOoLpJBTYLzl5DKdqxp-9" target="eVOoLpJBTYLzl5DKdqxp-10">
                    <mxGeometry relative="1" as="geometry"/>
                </mxCell>
                <mxCell id="eVOoLpJBTYLzl5DKdqxp-9" value="http_server_post_handler" style="strokeWidth=2;html=1;shape=mxgraph.flowchart.start_1;whiteSpace=wrap;" vertex="1" parent="eueUfSdCmA3u8m4OJzfh-1">
                    <mxGeometry x="163.87" y="670" width="147" height="60" as="geometry"/>
                </mxCell>
                <mxCell id="eVOoLpJBTYLzl5DKdqxp-15" value="" style="edgeStyle=none;html=1;" edge="1" parent="eueUfSdCmA3u8m4OJzfh-1" source="eVOoLpJBTYLzl5DKdqxp-10" target="eVOoLpJBTYLzl5DKdqxp-14">
                    <mxGeometry relative="1" as="geometry"/>
                </mxCell>
                <mxCell id="eVOoLpJBTYLzl5DKdqxp-10" value="httpd_req_recv(req, content, len)" style="rounded=1;whiteSpace=wrap;html=1;absoluteArcSize=1;arcSize=14;strokeWidth=2;" vertex="1" parent="eueUfSdCmA3u8m4OJzfh-1">
                    <mxGeometry x="140" y="780" width="194.75" height="40" as="geometry"/>
                </mxCell>
                <mxCell id="eVOoLpJBTYLzl5DKdqxp-13" value="Read request body content" style="text;html=1;align=center;verticalAlign=middle;resizable=0;points=[];autosize=1;strokeColor=none;fillColor=none;" vertex="1" parent="eueUfSdCmA3u8m4OJzfh-1">
                    <mxGeometry x="362.62" y="790" width="160" height="20" as="geometry"/>
                </mxCell>
                <mxCell id="eVOoLpJBTYLzl5DKdqxp-18" value="" style="edgeStyle=none;html=1;" edge="1" parent="eueUfSdCmA3u8m4OJzfh-1" source="eVOoLpJBTYLzl5DKdqxp-14" target="eVOoLpJBTYLzl5DKdqxp-17">
                    <mxGeometry relative="1" as="geometry"/>
                </mxCell>
                <mxCell id="eVOoLpJBTYLzl5DKdqxp-14" value="data_from_json(data, json)" style="rounded=1;whiteSpace=wrap;html=1;absoluteArcSize=1;arcSize=14;strokeWidth=2;" vertex="1" parent="eueUfSdCmA3u8m4OJzfh-1">
                    <mxGeometry x="140" y="860" width="194.75" height="40" as="geometry"/>
                </mxCell>
                <mxCell id="eVOoLpJBTYLzl5DKdqxp-16" value="Parse request post data to an struct" style="text;html=1;align=center;verticalAlign=middle;resizable=0;points=[];autosize=1;strokeColor=none;fillColor=none;" vertex="1" parent="eueUfSdCmA3u8m4OJzfh-1">
                    <mxGeometry x="362.62" y="870" width="210" height="20" as="geometry"/>
                </mxCell>
                <mxCell id="eVOoLpJBTYLzl5DKdqxp-21" value="" style="edgeStyle=none;html=1;" edge="1" parent="eueUfSdCmA3u8m4OJzfh-1" source="eVOoLpJBTYLzl5DKdqxp-17" target="eVOoLpJBTYLzl5DKdqxp-20">
                    <mxGeometry relative="1" as="geometry"/>
                </mxCell>
                <mxCell id="eVOoLpJBTYLzl5DKdqxp-17" value="app_send_msg(msg)" style="rounded=1;whiteSpace=wrap;html=1;absoluteArcSize=1;arcSize=14;strokeWidth=2;" vertex="1" parent="eueUfSdCmA3u8m4OJzfh-1">
                    <mxGeometry x="140.49" y="940" width="194.75" height="40" as="geometry"/>
                </mxCell>
                <mxCell id="eVOoLpJBTYLzl5DKdqxp-19" value="Send msg to another app" style="text;html=1;align=center;verticalAlign=middle;resizable=0;points=[];autosize=1;strokeColor=none;fillColor=none;" vertex="1" parent="eueUfSdCmA3u8m4OJzfh-1">
                    <mxGeometry x="367.62" y="950" width="150" height="20" as="geometry"/>
                </mxCell>
                <mxCell id="eVOoLpJBTYLzl5DKdqxp-51" value="" style="edgeStyle=none;html=1;" edge="1" parent="eueUfSdCmA3u8m4OJzfh-1" source="eVOoLpJBTYLzl5DKdqxp-20" target="eVOoLpJBTYLzl5DKdqxp-50">
                    <mxGeometry relative="1" as="geometry"/>
                </mxCell>
                <mxCell id="eVOoLpJBTYLzl5DKdqxp-20" value="app_wait_msg_processing" style="rounded=1;whiteSpace=wrap;html=1;absoluteArcSize=1;arcSize=14;strokeWidth=2;" vertex="1" parent="eueUfSdCmA3u8m4OJzfh-1">
                    <mxGeometry x="140" y="1020" width="194.75" height="40" as="geometry"/>
                </mxCell>
                <mxCell id="eVOoLpJBTYLzl5DKdqxp-22" value="Waits for msg processing" style="text;html=1;align=center;verticalAlign=middle;resizable=0;points=[];autosize=1;strokeColor=none;fillColor=none;" vertex="1" parent="eueUfSdCmA3u8m4OJzfh-1">
                    <mxGeometry x="367.62" y="1030" width="150" height="20" as="geometry"/>
                </mxCell>
                <mxCell id="eVOoLpJBTYLzl5DKdqxp-36" value="" style="edgeStyle=none;html=1;" edge="1" parent="eueUfSdCmA3u8m4OJzfh-1" source="eVOoLpJBTYLzl5DKdqxp-37" target="eVOoLpJBTYLzl5DKdqxp-39">
                    <mxGeometry relative="1" as="geometry"/>
                </mxCell>
                <mxCell id="eVOoLpJBTYLzl5DKdqxp-37" value="http_server_get_handler" style="strokeWidth=2;html=1;shape=mxgraph.flowchart.start_1;whiteSpace=wrap;" vertex="1" parent="eueUfSdCmA3u8m4OJzfh-1">
                    <mxGeometry x="164.36" y="1240" width="147" height="60" as="geometry"/>
                </mxCell>
                <mxCell id="eVOoLpJBTYLzl5DKdqxp-38" value="" style="edgeStyle=none;html=1;" edge="1" parent="eueUfSdCmA3u8m4OJzfh-1" source="eVOoLpJBTYLzl5DKdqxp-39" target="eVOoLpJBTYLzl5DKdqxp-42">
                    <mxGeometry relative="1" as="geometry"/>
                </mxCell>
                <mxCell id="eVOoLpJBTYLzl5DKdqxp-39" value="get_data" style="rounded=1;whiteSpace=wrap;html=1;absoluteArcSize=1;arcSize=14;strokeWidth=2;" vertex="1" parent="eueUfSdCmA3u8m4OJzfh-1">
                    <mxGeometry x="140.49" y="1350" width="194.75" height="40" as="geometry"/>
                </mxCell>
                <mxCell id="eVOoLpJBTYLzl5DKdqxp-40" value="Get requested data" style="text;html=1;align=center;verticalAlign=middle;resizable=0;points=[];autosize=1;strokeColor=none;fillColor=none;" vertex="1" parent="eueUfSdCmA3u8m4OJzfh-1">
                    <mxGeometry x="375.49" y="1360" width="120" height="20" as="geometry"/>
                </mxCell>
                <mxCell id="eVOoLpJBTYLzl5DKdqxp-54" value="" style="edgeStyle=none;html=1;" edge="1" parent="eueUfSdCmA3u8m4OJzfh-1" source="eVOoLpJBTYLzl5DKdqxp-42" target="eVOoLpJBTYLzl5DKdqxp-53">
                    <mxGeometry relative="1" as="geometry"/>
                </mxCell>
                <mxCell id="eVOoLpJBTYLzl5DKdqxp-42" value="data_to_json(json, data)" style="rounded=1;whiteSpace=wrap;html=1;absoluteArcSize=1;arcSize=14;strokeWidth=2;" vertex="1" parent="eueUfSdCmA3u8m4OJzfh-1">
                    <mxGeometry x="140.49" y="1430" width="194.75" height="40" as="geometry"/>
                </mxCell>
                <mxCell id="eVOoLpJBTYLzl5DKdqxp-43" value="Convert requested data to json" style="text;html=1;align=center;verticalAlign=middle;resizable=0;points=[];autosize=1;strokeColor=none;fillColor=none;" vertex="1" parent="eueUfSdCmA3u8m4OJzfh-1">
                    <mxGeometry x="375.49" y="1440" width="180" height="20" as="geometry"/>
                </mxCell>
                <mxCell id="eVOoLpJBTYLzl5DKdqxp-50" value="set_status, set_type, sendstr" style="rounded=1;whiteSpace=wrap;html=1;absoluteArcSize=1;arcSize=14;strokeWidth=2;" vertex="1" parent="eueUfSdCmA3u8m4OJzfh-1">
                    <mxGeometry x="140.49" y="1100" width="194.75" height="40" as="geometry"/>
                </mxCell>
                <mxCell id="eVOoLpJBTYLzl5DKdqxp-52" value="After msg processing check result, and set response parameters" style="text;html=1;align=center;verticalAlign=middle;resizable=0;points=[];autosize=1;strokeColor=none;fillColor=none;" vertex="1" parent="eueUfSdCmA3u8m4OJzfh-1">
                    <mxGeometry x="372.62" y="1110" width="360" height="20" as="geometry"/>
                </mxCell>
                <mxCell id="eVOoLpJBTYLzl5DKdqxp-53" value="set_status, set_type, sendstr" style="rounded=1;whiteSpace=wrap;html=1;absoluteArcSize=1;arcSize=14;strokeWidth=2;" vertex="1" parent="eueUfSdCmA3u8m4OJzfh-1">
                    <mxGeometry x="140.49" y="1510" width="194.75" height="40" as="geometry"/>
                </mxCell>
                <mxCell id="eVOoLpJBTYLzl5DKdqxp-57" value="Set response parameters" style="text;html=1;align=center;verticalAlign=middle;resizable=0;points=[];autosize=1;strokeColor=none;fillColor=none;" vertex="1" parent="eueUfSdCmA3u8m4OJzfh-1">
                    <mxGeometry x="375.49" y="1520" width="150" height="20" as="geometry"/>
                </mxCell>
            </root>
        </mxGraphModel>
    </diagram>
    <diagram id="ffVDMKHjE_Snzf3Vl014" name="net_app">
        <mxGraphModel dx="1731" dy="537" grid="1" gridSize="10" guides="1" tooltips="1" connect="1" arrows="1" fold="1" page="1" pageScale="1" pageWidth="850" pageHeight="1100" math="0" shadow="0">
            <root>
                <mxCell id="0"/>
                <mxCell id="1" parent="0"/>
                <mxCell id="17" value="" style="edgeStyle=none;html=1;" parent="1" source="8" target="10" edge="1">
                    <mxGeometry relative="1" as="geometry"/>
                </mxCell>
                <mxCell id="8" value="Msg Received&lt;br&gt;on Queue" style="shape=parallelogram;html=1;strokeWidth=2;perimeter=parallelogramPerimeter;whiteSpace=wrap;rounded=1;arcSize=12;size=0.23;" parent="1" vertex="1">
                    <mxGeometry x="328" y="153" width="120" height="50" as="geometry"/>
                </mxCell>
                <mxCell id="18" value="" style="edgeStyle=none;html=1;" parent="1" source="10" target="11" edge="1">
                    <mxGeometry relative="1" as="geometry"/>
                </mxCell>
                <mxCell id="25" value="" style="edgeStyle=none;html=1;" parent="1" source="10" target="24" edge="1">
                    <mxGeometry relative="1" as="geometry"/>
                </mxCell>
                <mxCell id="10" value="START&lt;br&gt;HTTP&lt;br&gt;SERVER" style="strokeWidth=2;html=1;shape=mxgraph.flowchart.decision;whiteSpace=wrap;" parent="1" vertex="1">
                    <mxGeometry x="338" y="243" width="100" height="100" as="geometry"/>
                </mxCell>
                <mxCell id="19" value="" style="edgeStyle=none;html=1;" parent="1" source="11" target="12" edge="1">
                    <mxGeometry relative="1" as="geometry"/>
                </mxCell>
                <mxCell id="27" value="" style="edgeStyle=none;html=1;" parent="1" source="11" target="26" edge="1">
                    <mxGeometry relative="1" as="geometry"/>
                </mxCell>
                <mxCell id="11" value="START&lt;br&gt;WIFI&lt;br&gt;AP" style="strokeWidth=2;html=1;shape=mxgraph.flowchart.decision;whiteSpace=wrap;" parent="1" vertex="1">
                    <mxGeometry x="338" y="383" width="100" height="100" as="geometry"/>
                </mxCell>
                <mxCell id="20" value="" style="edgeStyle=none;html=1;" parent="1" source="12" target="13" edge="1">
                    <mxGeometry relative="1" as="geometry"/>
                </mxCell>
                <mxCell id="29" value="" style="edgeStyle=none;html=1;" parent="1" source="12" target="28" edge="1">
                    <mxGeometry relative="1" as="geometry"/>
                </mxCell>
                <mxCell id="12" value="START&lt;br&gt;WIFI&lt;br&gt;STA" style="strokeWidth=2;html=1;shape=mxgraph.flowchart.decision;whiteSpace=wrap;" parent="1" vertex="1">
                    <mxGeometry x="338" y="523" width="100" height="100" as="geometry"/>
                </mxCell>
                <mxCell id="21" value="" style="edgeStyle=none;html=1;" parent="1" source="13" target="14" edge="1">
                    <mxGeometry relative="1" as="geometry"/>
                </mxCell>
                <mxCell id="31" value="" style="edgeStyle=none;html=1;" parent="1" source="13" target="30" edge="1">
                    <mxGeometry relative="1" as="geometry"/>
                </mxCell>
                <mxCell id="13" value="START&lt;br&gt;MQTT" style="strokeWidth=2;html=1;shape=mxgraph.flowchart.decision;whiteSpace=wrap;" parent="1" vertex="1">
                    <mxGeometry x="338" y="663" width="100" height="100" as="geometry"/>
                </mxCell>
                <mxCell id="22" value="" style="edgeStyle=none;html=1;" parent="1" source="14" target="15" edge="1">
                    <mxGeometry relative="1" as="geometry"/>
                </mxCell>
                <mxCell id="35" value="" style="edgeStyle=none;html=1;" parent="1" source="14" target="32" edge="1">
                    <mxGeometry relative="1" as="geometry"/>
                </mxCell>
                <mxCell id="14" value="SET&lt;br&gt;SETTINGS" style="strokeWidth=2;html=1;shape=mxgraph.flowchart.decision;whiteSpace=wrap;" parent="1" vertex="1">
                    <mxGeometry x="338" y="803" width="100" height="100" as="geometry"/>
                </mxCell>
                <mxCell id="23" value="" style="edgeStyle=none;html=1;" parent="1" source="15" target="16" edge="1">
                    <mxGeometry relative="1" as="geometry"/>
                </mxCell>
                <mxCell id="37" value="" style="edgeStyle=none;html=1;" parent="1" source="15" target="36" edge="1">
                    <mxGeometry relative="1" as="geometry"/>
                </mxCell>
                <mxCell id="15" value="SAVE&lt;br&gt;SETTINGS" style="strokeWidth=2;html=1;shape=mxgraph.flowchart.decision;whiteSpace=wrap;" parent="1" vertex="1">
                    <mxGeometry x="338" y="943" width="100" height="100" as="geometry"/>
                </mxCell>
                <mxCell id="44" value="" style="edgeStyle=none;html=1;" parent="1" source="16" target="38" edge="1">
                    <mxGeometry relative="1" as="geometry"/>
                </mxCell>
                <mxCell id="54" style="edgeStyle=orthogonalEdgeStyle;html=1;entryX=1;entryY=0.5;entryDx=0;entryDy=0;" parent="1" source="16" target="8" edge="1">
                    <mxGeometry relative="1" as="geometry">
                        <Array as="points">
                            <mxPoint x="748" y="1133"/>
                            <mxPoint x="748" y="178"/>
                        </Array>
                    </mxGeometry>
                </mxCell>
                <mxCell id="16" value="LOAD&lt;br&gt;SETTINGS" style="strokeWidth=2;html=1;shape=mxgraph.flowchart.decision;whiteSpace=wrap;" parent="1" vertex="1">
                    <mxGeometry x="338" y="1083" width="100" height="100" as="geometry"/>
                </mxCell>
                <mxCell id="47" style="edgeStyle=orthogonalEdgeStyle;html=1;entryX=1;entryY=0.5;entryDx=0;entryDy=0;" parent="1" source="24" target="8" edge="1">
                    <mxGeometry relative="1" as="geometry">
                        <Array as="points">
                            <mxPoint x="748" y="293"/>
                            <mxPoint x="748" y="178"/>
                        </Array>
                    </mxGeometry>
                </mxCell>
                <mxCell id="24" value="net_app_start_http_server" style="rounded=1;whiteSpace=wrap;html=1;absoluteArcSize=1;arcSize=14;strokeWidth=2;" parent="1" vertex="1">
                    <mxGeometry x="518" y="273" width="170" height="40" as="geometry"/>
                </mxCell>
                <mxCell id="48" style="edgeStyle=orthogonalEdgeStyle;html=1;entryX=1;entryY=0.5;entryDx=0;entryDy=0;" parent="1" source="26" target="8" edge="1">
                    <mxGeometry relative="1" as="geometry">
                        <Array as="points">
                            <mxPoint x="748" y="433"/>
                            <mxPoint x="748" y="178"/>
                        </Array>
                    </mxGeometry>
                </mxCell>
                <mxCell id="26" value="net_app_start_wifi_ap" style="rounded=1;whiteSpace=wrap;html=1;absoluteArcSize=1;arcSize=14;strokeWidth=2;" parent="1" vertex="1">
                    <mxGeometry x="518" y="413" width="170" height="40" as="geometry"/>
                </mxCell>
                <mxCell id="49" style="edgeStyle=orthogonalEdgeStyle;html=1;entryX=1;entryY=0.5;entryDx=0;entryDy=0;" parent="1" source="28" target="8" edge="1">
                    <mxGeometry relative="1" as="geometry">
                        <Array as="points">
                            <mxPoint x="748" y="573"/>
                            <mxPoint x="748" y="178"/>
                        </Array>
                    </mxGeometry>
                </mxCell>
                <mxCell id="28" value="net_app_start_wifi_sta" style="rounded=1;whiteSpace=wrap;html=1;absoluteArcSize=1;arcSize=14;strokeWidth=2;" parent="1" vertex="1">
                    <mxGeometry x="518" y="553" width="170" height="40" as="geometry"/>
                </mxCell>
                <mxCell id="50" style="edgeStyle=orthogonalEdgeStyle;html=1;entryX=1;entryY=0.5;entryDx=0;entryDy=0;" parent="1" source="30" target="8" edge="1">
                    <mxGeometry relative="1" as="geometry">
                        <Array as="points">
                            <mxPoint x="748" y="713"/>
                            <mxPoint x="748" y="178"/>
                        </Array>
                    </mxGeometry>
                </mxCell>
                <mxCell id="30" value="net_app_start_mqtt" style="rounded=1;whiteSpace=wrap;html=1;absoluteArcSize=1;arcSize=14;strokeWidth=2;" parent="1" vertex="1">
                    <mxGeometry x="518" y="693" width="170" height="40" as="geometry"/>
                </mxCell>
                <mxCell id="34" value="" style="edgeStyle=none;html=1;" parent="1" source="32" target="33" edge="1">
                    <mxGeometry relative="1" as="geometry"/>
                </mxCell>
                <mxCell id="32" value="net_app_start_wifi_sta" style="rounded=1;whiteSpace=wrap;html=1;absoluteArcSize=1;arcSize=14;strokeWidth=2;" parent="1" vertex="1">
                    <mxGeometry x="518" y="833" width="170" height="40" as="geometry"/>
                </mxCell>
                <mxCell id="52" style="edgeStyle=orthogonalEdgeStyle;html=1;entryX=1;entryY=0.5;entryDx=0;entryDy=0;" parent="1" source="33" target="8" edge="1">
                    <mxGeometry relative="1" as="geometry">
                        <Array as="points">
                            <mxPoint x="748" y="923"/>
                            <mxPoint x="748" y="178"/>
                        </Array>
                    </mxGeometry>
                </mxCell>
                <mxCell id="33" value="net_app_start_mqtt" style="rounded=1;whiteSpace=wrap;html=1;absoluteArcSize=1;arcSize=14;strokeWidth=2;" parent="1" vertex="1">
                    <mxGeometry x="518" y="903" width="170" height="40" as="geometry"/>
                </mxCell>
                <mxCell id="53" style="edgeStyle=orthogonalEdgeStyle;html=1;entryX=1;entryY=0.5;entryDx=0;entryDy=0;" parent="1" source="36" target="8" edge="1">
                    <mxGeometry relative="1" as="geometry">
                        <Array as="points">
                            <mxPoint x="748" y="993"/>
                            <mxPoint x="748" y="178"/>
                        </Array>
                    </mxGeometry>
                </mxCell>
                <mxCell id="36" value="net_app_save_settings" style="rounded=1;whiteSpace=wrap;html=1;absoluteArcSize=1;arcSize=14;strokeWidth=2;" parent="1" vertex="1">
                    <mxGeometry x="518" y="973" width="170" height="40" as="geometry"/>
                </mxCell>
                <mxCell id="45" style="edgeStyle=orthogonalEdgeStyle;html=1;entryX=0;entryY=0.5;entryDx=0;entryDy=0;entryPerimeter=0;" parent="1" source="38" target="14" edge="1">
                    <mxGeometry relative="1" as="geometry">
                        <Array as="points">
                            <mxPoint x="188" y="853"/>
                        </Array>
                    </mxGeometry>
                </mxCell>
                <mxCell id="38" value="net_app_load_settings" style="rounded=1;whiteSpace=wrap;html=1;absoluteArcSize=1;arcSize=14;strokeWidth=2;" parent="1" vertex="1">
                    <mxGeometry x="108" y="1113" width="170" height="40" as="geometry"/>
                </mxCell>
                <mxCell id="43" value="" style="edgeStyle=none;html=1;" parent="1" source="42" target="8" edge="1">
                    <mxGeometry relative="1" as="geometry"/>
                </mxCell>
                <mxCell id="42" value="net_app_start" style="strokeWidth=2;html=1;shape=mxgraph.flowchart.start_2;whiteSpace=wrap;" parent="1" vertex="1">
                    <mxGeometry x="338" y="63" width="100" height="50" as="geometry"/>
                </mxCell>
                <mxCell id="55" value="YES" style="text;html=1;align=center;verticalAlign=middle;resizable=0;points=[];autosize=1;strokeColor=none;fillColor=none;" parent="1" vertex="1">
                    <mxGeometry x="428" y="273" width="40" height="20" as="geometry"/>
                </mxCell>
                <mxCell id="56" value="YES" style="text;html=1;align=center;verticalAlign=middle;resizable=0;points=[];autosize=1;strokeColor=none;fillColor=none;" parent="1" vertex="1">
                    <mxGeometry x="428" y="413" width="40" height="20" as="geometry"/>
                </mxCell>
                <mxCell id="57" value="YES" style="text;html=1;align=center;verticalAlign=middle;resizable=0;points=[];autosize=1;strokeColor=none;fillColor=none;" parent="1" vertex="1">
                    <mxGeometry x="428" y="553" width="40" height="20" as="geometry"/>
                </mxCell>
                <mxCell id="58" value="YES" style="text;html=1;align=center;verticalAlign=middle;resizable=0;points=[];autosize=1;strokeColor=none;fillColor=none;" parent="1" vertex="1">
                    <mxGeometry x="428" y="693" width="40" height="20" as="geometry"/>
                </mxCell>
                <mxCell id="59" value="YES" style="text;html=1;align=center;verticalAlign=middle;resizable=0;points=[];autosize=1;strokeColor=none;fillColor=none;" parent="1" vertex="1">
                    <mxGeometry x="428" y="833" width="40" height="20" as="geometry"/>
                </mxCell>
                <mxCell id="60" value="YES" style="text;html=1;align=center;verticalAlign=middle;resizable=0;points=[];autosize=1;strokeColor=none;fillColor=none;" parent="1" vertex="1">
                    <mxGeometry x="428" y="973" width="40" height="20" as="geometry"/>
                </mxCell>
                <mxCell id="62" value="NO" style="text;html=1;align=center;verticalAlign=middle;resizable=0;points=[];autosize=1;strokeColor=none;fillColor=none;" parent="1" vertex="1">
                    <mxGeometry x="393" y="343" width="30" height="20" as="geometry"/>
                </mxCell>
                <mxCell id="63" value="NO" style="text;html=1;align=center;verticalAlign=middle;resizable=0;points=[];autosize=1;strokeColor=none;fillColor=none;" parent="1" vertex="1">
                    <mxGeometry x="393" y="483" width="30" height="20" as="geometry"/>
                </mxCell>
                <mxCell id="64" value="NO" style="text;html=1;align=center;verticalAlign=middle;resizable=0;points=[];autosize=1;strokeColor=none;fillColor=none;" parent="1" vertex="1">
                    <mxGeometry x="393" y="623" width="30" height="20" as="geometry"/>
                </mxCell>
                <mxCell id="65" value="NO" style="text;html=1;align=center;verticalAlign=middle;resizable=0;points=[];autosize=1;strokeColor=none;fillColor=none;" parent="1" vertex="1">
                    <mxGeometry x="393" y="763" width="30" height="20" as="geometry"/>
                </mxCell>
                <mxCell id="66" value="NO" style="text;html=1;align=center;verticalAlign=middle;resizable=0;points=[];autosize=1;strokeColor=none;fillColor=none;" parent="1" vertex="1">
                    <mxGeometry x="393" y="903" width="30" height="20" as="geometry"/>
                </mxCell>
                <mxCell id="67" value="NO" style="text;html=1;align=center;verticalAlign=middle;resizable=0;points=[];autosize=1;strokeColor=none;fillColor=none;" parent="1" vertex="1">
                    <mxGeometry x="393" y="1043" width="30" height="20" as="geometry"/>
                </mxCell>
                <mxCell id="68" value="YES" style="text;html=1;align=center;verticalAlign=middle;resizable=0;points=[];autosize=1;strokeColor=none;fillColor=none;" parent="1" vertex="1">
                    <mxGeometry x="298" y="1113" width="40" height="20" as="geometry"/>
                </mxCell>
                <mxCell id="69" value="NO" style="text;html=1;align=center;verticalAlign=middle;resizable=0;points=[];autosize=1;strokeColor=none;fillColor=none;" parent="1" vertex="1">
                    <mxGeometry x="438" y="1113" width="30" height="20" as="geometry"/>
                </mxCell>
                <mxCell id="71" value="net_app_queue_msg_t" style="swimlane;fontStyle=0;childLayout=stackLayout;horizontal=1;startSize=26;fillColor=none;horizontalStack=0;resizeParent=1;resizeParentMax=0;resizeLast=0;collapsible=1;marginBottom=0;" parent="1" vertex="1">
                    <mxGeometry x="80" y="139" width="170" height="78" as="geometry"/>
                </mxCell>
                <mxCell id="72" value="net_app_msg_id_t id" style="text;strokeColor=none;fillColor=none;align=left;verticalAlign=top;spacingLeft=4;spacingRight=4;overflow=hidden;rotatable=0;points=[[0,0.5],[1,0.5]];portConstraint=eastwest;" parent="71" vertex="1">
                    <mxGeometry y="26" width="170" height="26" as="geometry"/>
                </mxCell>
                <mxCell id="73" value="net_app_msg_data_t data" style="text;strokeColor=none;fillColor=none;align=left;verticalAlign=top;spacingLeft=4;spacingRight=4;overflow=hidden;rotatable=0;points=[[0,0.5],[1,0.5]];portConstraint=eastwest;" parent="71" vertex="1">
                    <mxGeometry y="52" width="170" height="26" as="geometry"/>
                </mxCell>
            </root>
        </mxGraphModel>
    </diagram>
</mxfile>